# xmcd
#
# Track frame offsets:
#	150
#	14014
#	27422
#	59289
#	74073
#	85882
#	97083
#	110378
#	122390
#	138521
#	153583
#	172837
#
# Disc length: 2474
#
# Revision: 1
# Processed by: cddbd v1.5.1PL0 Copyright (c) Steve Scherf et al.
# Submitted via: CDex 1.50beta10
# Normalized: r0:TDELIM( - ),TSWAP
#
DISCID=a309a80c
DTITLE=Just Jazz - Groovin' High
DYEAR=1900
DGENRE=Jazz
TTITLE0=Stan Getz - My Romance
TTITLE1=Chet Baker - Band Aid
TTITLE2=Dave Brubeck - Here Lies Love
TTITLE3=Louis Armstrong - Dippermouth Blues
TTITLE4=Sydney Bechet - Shake It and Break It
TTITLE5=Art Tatum - Running Wild
TTITLE6=Ella Fitzgerald - Imagination
TTITLE7=Dizzy Gillespie - Groovin' High
TTITLE8=Lester Young - D.B. Blues (Live)
TTITLE9=Teddy Wilson - How High the Moon
TTITLE10=Woody Herman and His Orchestra - Blowing Up a Storm
TTITLE11=Dinah Washington - Embraceable You
EXTD=
EXTT0=
EXTT1=
EXTT2=
EXTT3=
EXTT4=
EXTT5=
EXTT6=
EXTT7=
EXTT8=
EXTT9=
EXTT10=
EXTT11=
PLAYORDER=
